{"title":"[MARATHI] Deva Shapath Khot Saangen Khar Sanganar Nahi 2006 YTBR","uid":7606748,"size":720543600,"categoryP":"video","categoryS":"movies","magnet":"?xt=urn:btih:52168771379af2e0ca3103ba12e5c0ba91023480&amp;dn=%5BMARATHI%5D+Deva+Shapath+Khot+Saangen+Khar+Sanganar+Nahi+2006+YTBR&amp;tr=udp%3A%2F%2Ftracker.openbittorrent.com%3A80&amp;tr=udp%3A%2F%2Fopen.demonii.com%3A1337&amp;tr=udp%3A%2F%2Ftracker.coppersurfer.tk%3A6969&amp;tr=udp%3A%2F%2Fexodus.desync.com%3A6969","seeders":0,"leechers":1,"uploader":"SJonam","files":1,"time":1346963552,"description":" &lt;a href=&quot;http://desibbrg.org/images/25793733514958777881.jpg&quot; rel=&quot;nofollow&quot; target=&quot;_NEW&quot;&gt;http://desibbrg.org/images/25793733514958777881.jpg&lt;/a&gt; &lt;a href=&quot;\nhttp://desibbrg.org/images/57428778226646878680.jpg&quot; rel=&quot;nofollow&quot; target=&quot;_NEW&quot;&gt;\nhttp://desibbrg.org/images/57428778226646878680.jpg&lt;/a&gt; &lt;a href=&quot;\nhttp://desibbrg.org/images/49490524910398766270.jpg&quot; rel=&quot;nofollow&quot; target=&quot;_NEW&quot;&gt;\nhttp://desibbrg.org/images/49490524910398766270.jpg&lt;/a&gt; &lt;a href=&quot;\nhttp://desibbrg.org/images/10818900470682030176.jpg&quot; rel=&quot;nofollow&quot; target=&quot;_NEW&quot;&gt;\nhttp://desibbrg.org/images/10818900470682030176.jpg&lt;/a&gt; &lt;a href=&quot;\nhttp://desibbrg.org/images/27217722102067462674.jpg&quot; rel=&quot;nofollow&quot; target=&quot;_NEW&quot;&gt;\nhttp://desibbrg.org/images/27217722102067462674.jpg&lt;/a&gt; &lt;a href=&quot;\nhttp://desibbrg.org/images/36782218885097540243.jpg&quot; rel=&quot;nofollow&quot; target=&quot;_NEW&quot;&gt;\nhttp://desibbrg.org/images/36782218885097540243.jpg&lt;/a&gt; &lt;a href=&quot;\nhttp://desibbrg.org/images/22130600610817919017.jpg&quot; rel=&quot;nofollow&quot; target=&quot;_NEW&quot;&gt;\nhttp://desibbrg.org/images/22130600610817919017.jpg&lt;/a&gt;\n\nInfo - \nCast\nAshok Saraf\nAvishkar Darvekar\nPriya Berde\nPradnya Jadhav\nKuldeep Pawar\nVijay Chavan\nRohini Hattangadi\nRavindra Berde\nAshok Shinde\n\nDirectors\nSanjiv Kolate\n\nProducers\nPapu Behruz\n\nMedia Info - \nGeneral\nComplete name                  : Deva Shapath Khot Saangen Khar Sanganar Nahi YTBRip.avi\nFormat                         : AVI\nFormat/Info                    : Audio Video Interleave\nFile size                      : 687 MiB\nDuration                       : 2h 11mn\nOverall bit rate               : 732 Kbps\nWriting application            : Lavf52.94.0\n\nVideo\nID                             : 0\nFormat                         : AVC\nFormat/Info                    : Advanced Video Codec\nFormat profile                 : &lt;a class=&quot;__cf_email__&quot; href=&quot;/cdn-cgi/l/email-protection&quot; data-cfemail=&quot;125f737b7c525e213c22&quot;&gt;[email&amp;#160;protected]&lt;/a&gt;&lt;script data-cfhash='f9e31' type=&quot;text/javascript&quot;&gt;\n/* &lt;![CDATA[ */!function(){try{var t=&quot;currentScript&quot;in document?document.currentScript:function(){for(var t=document.getElementsByTagName(&quot;script&quot;),e=t.length;e--;)if(t[e].getAttribute(&quot;data-cfhash&quot;))return t[e]}();if(t&amp;&amp;t.previousSibling){var e,r,n,i,c=t.previousSibling,a=c.getAttribute(&quot;data-cfemail&quot;);if(a){for(e=&quot;&quot;,r=parseInt(a.substr(0,2),16),n=2;a.length-n;n+=2)i=parseInt(a.substr(n,2),16)^r,e+=String.fromCharCode(i);e=document.createTextNode(e),c.parentNode.replaceChild(e,c)}t.parentNode.removeChild(t);}}catch(u){}}()/* ]]&gt; */&lt;/script&gt;\nFormat settings, CABAC         : Yes\nFormat settings, ReFrames      : 2 frames\nCodec ID                       : H264\nDuration                       : 2h 11mn\nBit rate                       : 402 Kbps\nWidth                          : 640 pixels\nHeight                         : 480 pixels\nDisplay aspect ratio           : 4:3\nFrame rate mode                : Variable\nFrame rate                     : 25.000 fps\nColor space                    : YUV\nChroma subsampling             : 4:2:0\nBit depth                      : 8 bits\nScan type                      : Progressive\nBits/(Pixel*Frame)             : 0.052\nStream size                    : 375 MiB (55%)\nWriting library                : x264 core 112 r1834 a51816a\n\nAudio\nID                             : 1\nFormat                         : MPEG Audio\nFormat version                 : Version 1\nFormat profile                 : Layer 3\nMode                           : Joint stereo\nMode extension                 : MS Stereo\nCodec ID                       : 55\nCodec ID/Hint                  : MP3\nDuration                       : 2h 11mn\nBit rate mode                  : Constant\nBit rate                       : 320 Kbps\nChannel(s)                     : 2 channels\nSampling rate                  : 48.0 KHz\nCompression mode               : Lossy\nStream size                    : 300 MiB (44%)\nAlignment                      : Aligned on interleaves\nInterleave, duration           : 24 ms (0.60 video frame)\nWriting library                : LAME3.98.4\n\nRipper : Saket\n\nSeeding 24x7... Extreme Seeding...\n\n\nEnjoy!","torrent":{"xt":"urn:btih:52168771379af2e0ca3103ba12e5c0ba91023480","amp;dn":"%5BMARATHI%5D+Deva+Shapath+Khot+Saangen+Khar+Sanganar+Nahi+2006+YTBR","amp;tr":["udp%3A%2F%2Ftracker.openbittorrent.com%3A80","udp%3A%2F%2Fopen.demonii.com%3A1337","udp%3A%2F%2Ftracker.coppersurfer.tk%3A6969","udp%3A%2F%2Fexodus.desync.com%3A6969"],"infoHash":"52168771379af2e0ca3103ba12e5c0ba91023480","infoHashBuffer":{"type":"Buffer","data":[82,22,135,113,55,154,242,224,202,49,3,186,18,229,192,186,145,2,52,128]},"announce":[],"urlList":[]}}